<svg xmlns="http://www.w3.org/2000/svg" xmlns:xlink="http://www.w3.org/1999/xlink" width="682.666" height="682.666" fill-rule="evenodd" clip-rule="evenodd" image-rendering="optimizeQuality" shape-rendering="geometricPrecision" text-rendering="geometricPrecision" viewBox="0 0 180.622 180.622" id="newspaper"><defs><linearGradient id="a" x1="5.708" x2="31.344" y1="111.262" y2="111.262" gradientUnits="userSpaceOnUse"><stop offset="0" stop-color="#ff7b02"></stop><stop offset="1" stop-color="#ff0600"></stop></linearGradient><linearGradient id="b" x1="88.124" x2="123.944" y1="90.311" y2="90.311" gradientUnits="userSpaceOnUse" xlink:href="#a"></linearGradient></defs><path fill="url(#b)" d="M143.172 180.62l-102.846 0c-1.7533,0 -3.1749,-1.4217 -3.1749,-3.1749l-0.0001 -174.268c0,-1.7533 1.4217,-3.1748 3.1749,-3.1748l131.414 -0.0002c1.7533,0 3.1749,1.4217 3.1749,3.1749l0 145.701c0.0035,17.5009 -14.2378,31.7423 -31.7422,31.7423zm9.2849 -126.655l-92.8488 0c-1.7534,0 -3.1749,-1.4217 -3.1749,-3.1749l0 -31.4248c0,-1.7533 1.4217,-3.1749 3.1749,-3.1749l92.8488 0c1.7533,0 3.1749,1.4217 3.1749,3.1749l0 31.4247c0,1.7533 -1.4217,3.175 -3.1749,3.175zm-89.6703 -6.3499l86.4989 0 0 -25.0748 -86.4989 0 0 25.0748zm89.1941 27.3007l-91.8964 0c-1.7533,0 -3.1749,-1.4217 -3.1749,-3.1749 0,-1.7532 1.4217,-3.1748 3.1749,-3.1748l91.8964 0c1.7533,0 3.1749,1.4216 3.1749,3.1748 0,1.7532 -1.4217,3.1749 -3.1749,3.1749zm0 22.3797l-91.8964 0c-1.7533,0 -3.1749,-1.4217 -3.1749,-3.1749 0,-1.7532 1.4217,-3.1749 3.1749,-3.1749l91.8964 0c1.7533,0 3.1749,1.4217 3.1749,3.1749 0,1.7532 -1.4217,3.1749 -3.1749,3.1749zm0 22.3761l-91.8964 0c-1.7533,0 -3.1749,-1.4216 -3.1749,-3.1748 0,-1.7532 1.4217,-3.1749 3.1749,-3.1749l91.8964 -0.0001c1.7533,0 3.1749,1.4216 3.1749,3.1748 0,1.7532 -1.4217,3.175 -3.1749,3.175zm0 22.3797l-91.8964 0c-1.7533,0 -3.1749,-1.4217 -3.1749,-3.1749 0,-1.7532 1.4217,-3.1749 3.1749,-3.1749l91.8964 -0.0001c1.7533,0 3.1749,1.4217 3.1749,3.1749 0,1.7532 -1.4217,3.175 -3.1749,3.175zm0 22.3797l-91.8964 0c-1.7533,0 -3.1749,-1.4217 -3.1749,-3.1749 0,-1.7532 1.4217,-3.1749 3.1749,-3.1749l91.8964 -0.0001c1.7533,0 3.1749,1.4217 3.1749,3.1749 0,1.7532 -1.4217,3.175 -3.1749,3.175z"></path><path fill="url(#a)" d="M31.344 180.62l-22.4609 0c-1.7533,0 -3.1749,-1.4217 -3.1749,-3.1749l0 -132.366c0,-1.7533 1.4217,-3.1748 3.1749,-3.1748l21.9175 0 0.0001 135.541c0,1.1132 0.1919,2.1817 0.5433,3.1749z"></path></svg>